Coordinates
version=1
nRows=11
nColumns=40
inDegrees=yes

Units are S.I. units (second, meters, Newtons, ...)
Angles are in degrees.

endheader
time	pelvis_tilt	pelvis_list	pelvis_rotation	pelvis_tx	pelvis_ty	pelvis_tz	hip_flexion_r	hip_adduction_r	hip_rotation_r	knee_angle_r	knee_angle_r_beta	ankle_angle_r	subtalar_angle_r	mtp_angle_r	hip_flexion_l	hip_adduction_l	hip_rotation_l	knee_angle_l	knee_angle_l_beta	ankle_angle_l	subtalar_angle_l	mtp_angle_l	lumbar_extension	lumbar_bending	lumbar_rotation	arm_flex_r	arm_add_r	arm_rot_r	elbow_flex_r	pro_sup_r	wrist_flex_r	wrist_dev_r	arm_flex_l	arm_add_l	arm_rot_l	elbow_flex_l	pro_sup_l	wrist_flex_l	wrist_dev_l
     47.56500000	     -3.42831015	     -5.89800635	     -2.22329049	      1.02518325	      0.93715674	      0.41291904	     30.88468701	     -4.29988449	     -3.42651354	     58.28575164	     58.28575164	      0.63993883	     -8.35087315	     -2.46517510	     12.27126443	     -8.16864293	    -11.64037899	     19.78614330	     19.78614330	     12.06306018	    -10.48155351	     -1.46413750	    -11.24215118	      6.70973907	      1.26046559	     -3.72822533	    -12.11699250	     -2.68127102	     31.36112259	     46.13486329	      0.00000000	      0.00000000	     22.71837737	    -22.93115568	     -6.12864487	     65.95896688	     46.85949967	      0.00000000	      0.00000000
     47.57885714	     -3.56373403	     -6.00189952	     -2.64240929	      1.02425185	      0.93734429	      0.41318467	     31.30626236	     -3.98356423	     -3.43372971	     55.66848452	     55.66848452	      0.88625045	     -8.14921358	     -2.50500938	     11.80890607	     -8.25494475	    -11.86052695	     19.42160735	     19.42160735	     12.17110138	    -10.68751566	     -1.46043180	    -11.33544993	      6.84095995	      1.35828805	     -5.25185000	    -11.85228048	     -2.54300857	     30.73811464	     46.13696214	      0.00000000	      0.00000000	     23.53093874	    -23.21496029	     -6.57919083	     66.99888984	     46.92365770	      0.00000000	      0.00000000
     47.59271429	     -3.84479000	     -6.06376521	     -3.04458544	      1.02326318	      0.93716428	      0.41353930	     31.71524751	     -3.72294646	     -3.55612906	     52.59494920	     52.59494920	      1.22895381	     -7.70596739	     -2.40517876	     11.58583600	     -8.32104121	    -12.05554235	     19.19532973	     19.19532973	     12.31417489	    -10.87731188	     -1.47578403	    -11.24728134	      6.96014466	      1.23259886	     -6.62342177	    -11.55073901	     -2.47763910	     30.29126955	     46.13862282	      0.00000000	      0.00000000	     24.19583559	    -23.72572657	     -6.93928024	     67.70852981	     46.96926633	      0.00000000	      0.00000000
     47.60657143	     -3.95331039	     -6.15598563	     -3.45722328	      1.02240580	      0.93715978	      0.41399947	     31.59062770	     -3.42162341	     -3.82488039	     48.77497038	     48.77497038	      0.81780511	     -7.39344862	     -4.57211378	     11.13234422	     -8.39210410	    -12.18022218	     18.89318619	     18.89318619	     12.29604904	    -11.31934308	     -1.76812267	    -11.50272624	      7.05563543	      1.06408917	     -7.93572784	    -11.40120057	     -2.51030424	     30.50383930	     46.11484732	      0.00000000	      0.00000000	     23.98505484	    -23.98661981	     -8.30856027	     70.54392403	     47.15140435	      0.00000000	      0.00000000
     47.62042857	     -4.28186714	     -6.19081435	     -3.84679394	      1.02150639	      0.93672847	      0.41466024	     31.61255660	     -3.12939227	     -4.15639974	     44.77164993	     44.77164993	      1.22196441	     -6.46757773	     -4.37514646	     10.96499744	     -8.46291098	    -12.42298444	     18.67813360	     18.67813360	     12.43110476	    -11.45418672	     -1.78359129	    -11.36371289	      7.12254631	      1.12011872	     -9.12915569	    -11.16676984	     -2.40632065	     30.02227047	     46.11700955	      0.00000000	      0.00000000	     24.63973659	    -24.19376961	     -8.55371189	     71.25222564	     47.18959974	      0.00000000	      0.00000000
     47.63428571	     -4.58544611	     -6.20017180	     -4.23462738	      1.02069577	      0.93621326	      0.41550362	     31.38555774	     -2.82222233	     -4.59032800	     40.36962891	     40.36962891	      1.55516345	     -5.20138911	     -4.12933373	     10.79583978	     -8.52353839	    -12.64848077	     18.52703028	     18.52703028	     12.59466246	    -11.59972638	     -1.83780181	    -11.27409357	      7.15806572	      1.23376416	    -10.18037019	    -10.92529295	     -2.33257773	     29.66563108	     46.11717522	      0.00000000	      0.00000000	     25.21850510	    -24.37523273	     -8.81044717	     72.08323279	     47.22949364	      0.00000000	      0.00000000
     47.64814286	     -4.78353846	     -6.14194815	     -4.59578523	      1.02009086	      0.93571154	      0.41635577	     30.77204838	     -2.60708513	     -5.28281587	     35.53667018	     35.53667018	      1.35282815	     -3.48555687	     -5.19977051	     10.50224835	     -8.50687772	    -12.93038704	     18.37344233	     18.37344233	     12.74951737	    -11.68449498	     -2.02624066	    -11.33887235	      7.09733829	      1.18155105	    -11.10326401	    -10.74442573	     -2.26348049	     29.71397073	     46.10021185	      0.00000000	      0.00000000	     25.20381629	    -24.46270106	     -9.71120735	     74.12924186	     47.36149273	      0.00000000	      0.00000000
     47.66200000	     -5.11405848	     -6.10888974	     -4.89967251	      1.01958296	      0.93495928	      0.41745803	     30.14934780	     -2.21451229	     -5.91478115	     30.62749361	     30.62749361	      1.41950905	     -1.74602684	     -4.40363097	     10.37994204	     -8.54619223	    -13.14193373	     18.26765500	     18.26765500	     12.92157381	    -11.79283758	     -2.12959459	    -11.14951746	      7.09218762	      1.22706812	    -11.82606943	    -10.52566113	     -2.18235993	     29.44298980	     46.09928944	      0.00000000	      0.00000000	     25.62990359	    -24.56236495	     -9.81821206	     74.65207215	     47.38477946	      0.00000000	      0.00000000
     47.67585714	     -5.23290286	     -5.97865787	     -5.16173410	      1.01944144	      0.93431274	      0.41857112	     29.17396116	     -2.00447124	     -6.97410938	     25.81961395	     25.81961395	      1.53050013	      1.01758623	     -3.23120975	      9.98592150	     -8.46805346	    -13.43393026	     18.11593924	     18.11593924	     13.13671484	    -11.72158137	     -2.35563656	    -11.18772784	      6.95495981	      1.39123735	    -12.48394725	    -10.33912377	     -2.07050090	     29.20423780	     46.09553678	      0.00000000	      0.00000000	     26.01947204	    -24.46282045	     -9.97679462	     75.53577278	     47.42396434	      0.00000000	      0.00000000
     47.68971429	     -5.38983955	     -5.88163215	     -5.37524754	      1.01954783	      0.93351155	      0.41994734	     28.15947961	     -1.60728643	     -7.87429506	     21.25081078	     21.25081078	      1.42705447	      3.32027094	     -1.61776159	      9.64721599	     -8.43868139	    -13.64894139	     18.00679459	     18.00679459	     13.34807592	    -11.73959848	     -2.58581783	    -11.08872259	      6.85586159	      1.42808280	    -12.92727703	    -10.14823485	     -1.98781500	     29.07474563	     46.09110661	      0.00000000	      0.00000000	     26.26124923	    -24.43429746	    -10.04464648	     76.09369917	     47.44722543	      0.00000000	      0.00000000
     47.70357143	     -5.52830176	     -5.73708056	     -5.52828320	      1.01997034	      0.93261433	      0.42149136	     27.17638734	     -1.23733803	     -8.83466413	     17.27926964	     17.27926964	      1.23128425	      5.46726518	      0.19699992	      9.25482873	     -8.35638513	    -13.82270097	     17.84710637	     17.84710637	     13.57166423	    -11.68662372	     -2.83959795	    -10.93178519	      6.70021354	      1.43270166	    -13.27932584	     -9.99277252	     -1.91059335	     28.96804829	     46.08697330	      0.00000000	      0.00000000	     26.41174557	    -24.30478607	    -10.03679694	     76.53143069	     47.46140018	      0.00000000	      0.00000000
